<svg width="19" height="19" viewBox="0 0 19 19" fill="none" xmlns="http://www.w3.org/2000/svg">
<path d="M8.66249 0C10.2006 8.119e-05 11.7052 0.466375 12.9917 1.34165C14.2782 2.21693 15.2906 3.46311 15.9046 4.92725C16.5186 6.3914 16.7076 8.0098 16.4482 9.58384C16.1889 11.1579 15.4926 12.6191 14.4447 13.7881L18.6214 18.1264C18.7079 18.217 18.7588 18.3377 18.7642 18.4651C18.7695 18.5925 18.7289 18.7174 18.6503 18.8154C18.5717 18.9134 18.4608 18.9775 18.3391 18.9951C18.2175 19.0127 18.0939 18.9826 17.9925 18.9107L17.9233 18.8512L13.7289 14.4944C12.755 15.3393 11.5993 15.9281 10.3598 16.2109C9.12022 16.4938 7.83328 16.4625 6.60789 16.1195C5.38249 15.7766 4.25473 15.1321 3.32008 14.2407C2.38543 13.3494 1.67141 12.2373 1.23847 10.9987C0.805535 9.76011 0.666424 8.43145 0.832918 7.1252C0.999413 5.81896 1.46661 4.57359 2.19496 3.49454C2.92331 2.41549 3.89136 1.53453 5.01715 0.926237C6.14295 0.317944 7.39335 0.000232491 8.66249 0ZM8.66249 1.02514C7.75481 1.02514 6.85603 1.21075 6.01744 1.57137C5.17886 1.932 4.41691 2.46057 3.77509 3.12692C3.13326 3.79327 2.62414 4.58434 2.27679 5.45497C1.92944 6.32559 1.75066 7.25872 1.75066 8.20108C1.75066 9.14344 1.92944 10.0766 2.27679 10.9472C2.62414 11.8178 3.13326 12.6089 3.77509 13.2752C4.41691 13.9416 5.17886 14.4702 6.01744 14.8308C6.85603 15.1914 7.75481 15.377 8.66249 15.377C10.4956 15.377 12.2537 14.621 13.5499 13.2752C14.8461 11.9295 15.5743 10.1043 15.5743 8.20108C15.5743 6.2979 14.8461 4.47267 13.5499 3.12692C12.2537 1.78117 10.4956 1.02514 8.66249 1.02514Z" fill="#373737"/>
</svg>
