<svg width="37" height="37" viewBox="0 0 37 37" fill="none" xmlns="http://www.w3.org/2000/svg">
<path d="M7.5105 19.8825C7.5105 17.7536 7.5105 16.6891 7.94138 15.7534C8.37227 14.8177 9.18148 14.125 10.7999 12.7395L12.3698 11.3955C15.2951 8.8912 16.7577 7.63907 18.5 7.63907C20.2423 7.63907 21.7049 8.8912 24.6302 11.3955L26.2001 12.7395C27.8185 14.125 28.6277 14.8177 29.0586 15.7534C29.4895 16.6891 29.4895 17.7536 29.4895 19.8825V23.3461C29.4895 26.3027 29.4895 27.781 28.5699 28.6995C27.6502 29.618 26.1701 29.618 23.2098 29.618H13.7902C10.8299 29.618 9.34978 29.618 8.43014 28.6995C7.5105 27.781 7.5105 26.3027 7.5105 23.3461V19.8825Z" stroke="#F84C4C" stroke-width="1.5"/>
<path d="M22.4247 29.6181V21.7102C22.4247 20.8818 21.7531 20.2102 20.9247 20.2102H16.0751C15.2466 20.2102 14.5751 20.8818 14.5751 21.7102V29.6181" stroke="#F84C4C" stroke-width="1.5" stroke-linecap="round" stroke-linejoin="round"/>
</svg>
