<svg width="37" height="37" viewBox="0 0 37 37" fill="none" xmlns="http://www.w3.org/2000/svg">
<path d="M10.8886 16.9142L12.3114 28.2628C12.362 28.6809 12.5646 29.0658 12.8808 29.3441C13.197 29.6223 13.6045 29.7744 14.0257 29.7714H22.9914C23.4126 29.7744 23.8201 29.6223 24.1363 29.3441C24.4525 29.0658 24.6552 28.6809 24.7057 28.2628L26.1114 16.9142" stroke="#D8D8D8" stroke-width="1.5" stroke-linecap="round" stroke-linejoin="round"/>
<path d="M24.74 11.9771C24.9414 11.9235 25.1487 11.8947 25.3571 11.8914L25.2886 11.8743C25.9705 11.8743 26.6246 12.1452 27.1068 12.6274C27.5891 13.1096 27.86 13.7637 27.86 14.4457C27.86 15.1277 27.5891 15.7817 27.1068 16.264C26.6246 16.7462 25.9705 17.0171 25.2886 17.0171H11.6428C11.3063 17.02 10.9726 16.9564 10.6607 16.8299C10.3489 16.7034 10.0651 16.5165 9.82571 16.28C9.42801 15.8803 9.17268 15.3611 9.099 14.8021C9.02532 14.2432 9.13738 13.6755 9.41794 13.1865C9.6985 12.6975 10.132 12.3142 10.6517 12.0957C11.1714 11.8772 11.7486 11.8355 12.2943 11.9771C12.1376 11.6023 12.0561 11.2004 12.0543 10.7943C12.0759 10.1986 12.2524 9.61877 12.5664 9.11211C12.8804 8.60544 13.3211 8.18941 13.845 7.90505C14.3689 7.62069 14.9579 7.47783 15.5539 7.49057C16.1498 7.50331 16.7322 7.6712 17.2434 7.97768C17.7744 8.29767 18.2086 8.75563 18.5 9.30282C18.7915 8.75535 19.2261 8.29722 19.7574 7.97721C20.2887 7.65721 20.8969 7.48734 21.5171 7.48568C22.4119 7.47619 23.275 7.81691 23.922 8.4351C24.569 9.05329 24.9487 9.89994 24.98 10.7943C24.9782 11.2004 24.8966 11.6023 24.74 11.9771Z" stroke="#D8D8D8" stroke-width="1.5" stroke-linecap="round" stroke-linejoin="round"/>
<path d="M18.5 16.9142V29.7714" stroke="#D8D8D8" stroke-width="1.5"/>
<path d="M22.3652 16.528L21.4683 29.3538" stroke="#D8D8D8" stroke-width="1.5"/>
<path d="M14.5853 16.5113L15.4846 29.3706" stroke="#D8D8D8" stroke-width="1.5"/>
</svg>
