<svg width="37" height="37" viewBox="0 0 37 37" fill="none" xmlns="http://www.w3.org/2000/svg">
<circle cx="18.5" cy="12.438" r="5.13942" stroke="#D8D8D8" stroke-width="1.5" stroke-linecap="round"/>
<mask id="path-2-outside-1_351_1606" maskUnits="userSpaceOnUse" x="7.5436" y="19.1169" width="22" height="12" fill="black">
<rect fill="white" x="7.5436" y="19.1169" width="22" height="12"/>
<path fill-rule="evenodd" clip-rule="evenodd" d="M18.4999 21.1169C13.8274 21.1169 9.98704 24.171 9.54783 28.0773C9.50155 28.4889 9.84174 28.826 10.256 28.826H26.7439C27.1581 28.826 27.4983 28.4889 27.4521 28.0773C27.0128 24.171 23.1725 21.1169 18.4999 21.1169Z"/>
</mask>
<path d="M27.4521 28.0773L28.9427 27.9097L27.4521 28.0773ZM11.0384 28.2449C11.3735 25.2648 14.4098 22.6169 18.4999 22.6169V19.6169C13.245 19.6169 8.60058 23.0772 8.05722 27.9097L11.0384 28.2449ZM26.7439 27.326H10.256V30.326H26.7439V27.326ZM18.4999 22.6169C22.5901 22.6169 25.6264 25.2648 25.9615 28.2449L28.9427 27.9097C28.3993 23.0772 23.7549 19.6169 18.4999 19.6169V22.6169ZM26.7439 30.326C27.9356 30.326 29.1016 29.3232 28.9427 27.9097L25.9615 28.2449C25.8951 27.6547 26.3806 27.326 26.7439 27.326V30.326ZM8.05722 27.9097C7.8983 29.3232 9.06424 30.326 10.256 30.326V27.326C10.6192 27.326 11.1048 27.6547 11.0384 28.2449L8.05722 27.9097Z" fill="#D8D8D8" mask="url(#path-2-outside-1_351_1606)"/>
</svg>
