<svg width="37" height="37" viewBox="0 0 37 37" fill="none" xmlns="http://www.w3.org/2000/svg">
<path d="M14.8999 28.2285H11.2999C10.0269 28.2285 8.806 27.7228 7.90583 26.8227C7.00565 25.9225 6.49994 24.7016 6.49994 23.4285V12.6285C6.49994 11.3555 7.00565 10.1346 7.90583 9.23443C8.806 8.33425 10.0269 7.82854 11.2999 7.82854H24.4999C25.773 7.82854 26.9939 8.33425 27.894 9.23443C28.7942 10.1346 29.2999 11.3555 29.2999 12.6285V16.2285M13.6999 6.62854V9.02854M22.0999 6.62854V9.02854M6.49994 13.8285H29.2999M26.2999 23.0001L24.4999 24.8001" stroke="#D8D8D8" stroke-width="1.5" stroke-linecap="round" stroke-linejoin="round"/>
<path d="M24.4999 30.6285C27.8136 30.6285 30.4999 27.9422 30.4999 24.6285C30.4999 21.3148 27.8136 18.6285 24.4999 18.6285C21.1862 18.6285 18.4999 21.3148 18.4999 24.6285C18.4999 27.9422 21.1862 30.6285 24.4999 30.6285Z" stroke="#D8D8D8" stroke-width="1.5" stroke-linecap="round" stroke-linejoin="round"/>
</svg>
