<svg width="18" height="18" viewBox="0 0 18 18" fill="none" xmlns="http://www.w3.org/2000/svg">
<path d="M8.19911 1.62278C8.52672 0.958977 9.47328 0.958978 9.80089 1.62279L11.4372 4.93837C11.5673 5.20197 11.8188 5.38467 12.1097 5.42694L15.7687 5.95862C16.5012 6.06507 16.7937 6.96531 16.2636 7.48201L13.616 10.0628C13.4055 10.268 13.3094 10.5636 13.3591 10.8534L13.9842 14.4975C14.1093 15.2271 13.3435 15.7835 12.6883 15.439L9.4156 13.7185C9.15542 13.5817 8.84458 13.5817 8.58439 13.7185L5.31172 15.439C4.6565 15.7835 3.89071 15.2271 4.01585 14.4975L4.64087 10.8534C4.69056 10.5636 4.59451 10.268 4.38401 10.0628L1.73636 7.48201C1.20628 6.96531 1.49879 6.06507 2.23134 5.95862L5.89031 5.42694C6.1812 5.38467 6.43268 5.20197 6.56277 4.93837L8.19911 1.62278Z" fill="#F84C4C"/>
</svg>
