<svg width="336" height="48" viewBox="0 0 336 48" fill="none" xmlns="http://www.w3.org/2000/svg">
<rect x="1.00879" y="0.5" width="334" height="47" rx="5.5" fill="#F5F5F5" stroke="#F5F5F5"/>
<path d="M143.033 26.0678L142.148 27.1778C140.903 26.4878 139.283 24.7778 138.863 23.3978C138.518 24.8228 137.183 26.5928 135.563 27.4778L134.603 26.3378C136.733 25.1528 138.068 22.9928 138.068 20.3078V19.6028H135.278V18.3578H142.373V19.6028H139.658V20.3078C139.658 23.0228 141.083 24.9878 143.033 26.0678ZM145.283 16.9628V22.1978H147.308V23.4878H145.283V30.3278H143.738V16.9628H145.283ZM158.646 30.3278H157.176V16.9628H158.646V30.3278ZM156.006 29.6978H154.566V22.9028H152.646V21.6278H154.566V17.2328H156.006V29.6978ZM154.146 25.9478L153.261 27.0128C152.316 26.4128 151.116 25.0028 150.726 23.6078C150.396 25.0628 149.331 26.5478 148.041 27.3578L147.111 26.3078C148.731 25.2428 149.976 23.1278 149.976 20.3828V18.2828H151.461V20.3678C151.461 22.9178 152.586 24.9878 154.146 25.9478ZM170.855 30.3278H169.325V16.9628H170.855V30.3278ZM167.855 21.3278H160.1V20.0828H167.855V21.3278ZM161.96 19.0028V17.7428H166.025V19.0028H161.96ZM167.18 24.8228C167.18 26.4128 165.905 27.6728 163.985 27.6728C162.08 27.6728 160.79 26.4578 160.79 24.8228C160.79 23.2478 162.08 21.9728 163.985 21.9728C165.905 21.9728 167.18 23.2028 167.18 24.8228ZM165.65 24.8228C165.65 23.8778 164.945 23.2328 163.985 23.2328C163.04 23.2328 162.35 23.8778 162.35 24.8228C162.35 25.7528 163.04 26.4128 163.985 26.4128C165.035 26.4128 165.65 25.7528 165.65 24.8228ZM186.339 24.6578H182.559V27.4028H187.854V28.6328H175.779V27.4028H181.029V24.6578H177.294V17.9228H178.824V20.0678H184.809V17.9078H186.339V24.6578ZM184.809 23.4278V21.2828H178.824V23.4278H184.809ZM199.267 30.3278H197.737V16.9628H199.267V30.3278ZM195.172 18.3728C195.082 22.5128 193.012 25.7078 189.157 27.8228L188.197 26.6528C191.272 25.2428 193.267 22.4378 193.522 19.6328H188.977V18.3728H195.172Z" fill="#666666"/>
</svg>
