<svg width="61" height="61" viewBox="0 0 61 61" fill="none" xmlns="http://www.w3.org/2000/svg">
<g clip-path="url(#clip0_146_2046)">
<rect x="0.397461" y="0.552002" width="60" height="60" fill="white"/>
<path d="M30.5271 21.9535C31.1293 21.2398 31.8615 20.6604 32.6803 20.2492C33.4991 19.8381 34.388 19.6037 35.2944 19.5598C36.2008 19.516 37.1064 19.6635 37.9577 19.9938C38.809 20.3241 39.5887 20.8304 40.2507 21.4829C40.9127 22.1353 41.4437 22.9206 41.8122 23.7924C42.1807 24.6642 42.3793 25.6049 42.3963 26.5587C42.4132 27.5126 42.2482 28.4604 41.9109 29.346C41.5736 30.2317 41.0709 31.0373 40.4326 31.7153L30.4531 42.3085C30.3805 42.3856 30.294 42.4469 30.1987 42.4887C30.1034 42.5305 30.0012 42.552 29.8979 42.552C29.7947 42.552 29.6924 42.5305 29.5971 42.4887C29.5018 42.4469 29.4153 42.3856 29.3427 42.3085L19.3633 31.7153C18.1528 30.4304 17.4513 28.7104 17.4004 26.9027C17.3496 25.095 17.9532 23.3343 19.0893 21.9765C21.7852 18.7532 26.5582 18.7422 29.2687 21.9535L29.8979 22.6982L30.5271 21.9535Z" fill="#F84C4C"/>
</g>
<defs>
<clipPath id="clip0_146_2046">
<rect width="60" height="60" fill="white" transform="translate(0.397461 0.552002)"/>
</clipPath>
</defs>
</svg>
