<svg width="61" height="61" viewBox="0 0 61 61" fill="none" xmlns="http://www.w3.org/2000/svg">
<g clip-path="url(#clip0_146_1997)">
<rect x="0.397461" y="0.552002" width="60" height="60" fill="white"/>
<path d="M25.3771 21.552C25.3771 22.7706 24.3559 23.7937 23.0521 23.7937C21.7483 23.7937 20.7271 22.7706 20.7271 21.552C20.7271 20.3334 21.7483 19.3103 23.0521 19.3103C24.3559 19.3103 25.3771 20.3334 25.3771 21.552Z" stroke="#B6B6B6" stroke-width="1.51667"/>
<path d="M25.3771 39.552C25.3771 40.7706 24.3559 41.7937 23.0521 41.7937C21.7483 41.7937 20.7271 40.7706 20.7271 39.552C20.7271 38.3334 21.7483 37.3103 23.0521 37.3103C24.3559 37.3103 25.3771 38.3334 25.3771 39.552Z" stroke="#B6B6B6" stroke-width="1.51667"/>
<path d="M37.7106 30.552C37.7106 31.7706 36.6894 32.7937 35.3856 32.7937C34.0818 32.7937 33.0606 31.7706 33.0606 30.552C33.0606 29.3334 34.0818 28.3103 35.3856 28.3103C36.6894 28.3103 37.7106 29.3334 37.7106 30.552Z" stroke="#B6B6B6" stroke-width="1.51667"/>
<path d="M24.9835 23.0001L33.183 28.5521" stroke="#B6B6B6" stroke-width="1.51667" stroke-linecap="round" stroke-linejoin="round"/>
<path d="M25.1191 38.2183L33.1829 32.552" stroke="#B6B6B6" stroke-width="1.51667" stroke-linecap="round" stroke-linejoin="round"/>
</g>
<defs>
<clipPath id="clip0_146_1997">
<rect width="60" height="60" fill="white" transform="translate(0.397461 0.552002)"/>
</clipPath>
</defs>
</svg>
