<svg width="61" height="61" viewBox="0 0 61 61" fill="none" xmlns="http://www.w3.org/2000/svg">
<g clip-path="url(#clip0_146_1996)">
<rect x="0.397461" y="0.552002" width="60" height="60" fill="white"/>
<path d="M31.1064 22.4429L31.1066 22.4425C31.644 21.8058 32.2952 21.2911 33.0206 20.9269C33.7458 20.5628 34.5313 20.356 35.3311 20.3173C36.1308 20.2786 36.9305 20.4087 37.6834 20.7008C38.4364 20.993 39.1287 21.4419 39.7184 22.023C40.3082 22.6042 40.7833 23.3059 41.1137 24.0877C41.4442 24.8695 41.6228 25.7144 41.6381 26.5722C41.6533 27.43 41.5048 28.2815 41.2022 29.0762C40.8996 29.8707 40.4496 30.5911 39.8805 31.1955L29.9012 41.7885L29.901 41.7886C29.8999 41.7898 29.8988 41.7908 29.8979 41.7916C29.897 41.7908 29.896 41.7898 29.8948 41.7886L29.8947 41.7885L19.9152 31.1953L19.3726 31.7065L19.9152 31.1953C18.8357 30.0494 18.2042 28.5082 18.1585 26.8814C18.1127 25.2545 18.6564 23.6756 19.6709 22.4631L19.671 22.463C22.0647 19.601 26.2826 19.5914 28.6892 22.4426L28.6894 22.4429L29.3186 23.1876L29.8979 23.8733L30.4772 23.1876L31.1064 22.4429Z" stroke="#B6B6B6" stroke-width="1.51667"/>
</g>
<defs>
<clipPath id="clip0_146_1996">
<rect width="60" height="60" fill="white" transform="translate(0.397461 0.552002)"/>
</clipPath>
</defs>
</svg>
