<svg width="256" height="61" viewBox="0 0 256 61" fill="none" xmlns="http://www.w3.org/2000/svg">
<g clip-path="url(#clip0_146_1998)">
<rect x="0.897461" y="0.552002" width="255" height="60" fill="#F84C4C"/>
<path d="M89.4635 33.52L88.2935 35.158C86.8715 34.438 84.9095 32.404 84.4235 30.856C84.0455 32.476 82.4255 34.618 80.5535 35.536L79.2935 33.97C81.9935 32.53 83.3075 30.046 83.3075 26.68V26.248H80.1035V24.574H88.6175V26.248H85.5215V26.662C85.5215 30.046 87.0515 32.278 89.4635 33.52ZM92.7035 38.974H90.5975V22.936H92.7035V38.974ZM107.648 38.776H96.8657V32.854H107.648V38.776ZM107.648 23.566C107.648 25.708 107.45 27.778 107.108 29.308H109.502V30.982H95.0117V29.308H105.11C105.362 28.264 105.56 26.302 105.542 25.24H96.8657V23.566H107.648ZM105.56 37.138V34.456H98.9537V37.138H105.56ZM123.792 33.196H121.902C121.38 34.636 120.426 35.644 118.932 35.644C116.448 35.644 115.476 32.818 115.476 29.866C115.476 26.95 116.448 24.142 118.932 24.142C120.39 24.142 121.344 25.114 121.866 26.482H123.792V23.242H125.754V38.236H123.792V33.196ZM128.958 38.974H126.96V22.936H128.958V38.974ZM120.462 29.884C120.462 27.742 120.03 25.978 118.95 25.978C117.906 25.978 117.456 27.742 117.456 29.884C117.456 32.026 117.906 33.772 118.95 33.772C120.03 33.772 120.462 32.026 120.462 29.884ZM122.424 29.884C122.424 30.442 122.388 30.982 122.298 31.504H123.792V28.174H122.298C122.388 28.732 122.424 29.308 122.424 29.884ZM137.873 24.862V34.798H131.375V24.862H137.873ZM144.533 38.974H142.517V30.928H141.221V38.236H139.241V23.224H141.221V29.236H142.517V22.936H144.533V38.974ZM135.893 33.178V26.482H133.355V33.178H135.893ZM155.697 28.426H146.391V26.752H155.697V28.426ZM148.641 25.636V23.98H153.591V25.636H148.641ZM159.009 22.936V29.434H161.241V31.18H159.009V38.974H156.885V22.936H159.009ZM147.183 32.44C147.183 30.478 148.749 28.984 151.053 28.984C153.357 28.984 154.923 30.424 154.923 32.44C154.923 34.402 153.357 35.896 151.053 35.896C148.749 35.896 147.183 34.474 147.183 32.44ZM149.235 32.44C149.235 33.484 149.991 34.186 151.053 34.186C152.223 34.186 152.871 33.484 152.871 32.44C152.871 31.378 152.097 30.676 151.053 30.676C150.009 30.676 149.235 31.378 149.235 32.44ZM175.303 38.974H173.197V22.936H175.303V38.974ZM170.371 24.61C170.245 29.452 168.103 33.412 163.207 36.076L161.911 34.492C165.421 32.89 167.815 29.542 168.103 26.356H162.883V24.61H170.371Z" fill="white"/>
</g>
<defs>
<clipPath id="clip0_146_1998">
<rect width="255" height="60" fill="white" transform="translate(0.897461 0.552002)"/>
</clipPath>
</defs>
</svg>
