<svg width="19" height="19" viewBox="0 0 19 19" fill="none" xmlns="http://www.w3.org/2000/svg">
<path d="M8.86195 2.12278C9.18956 1.45898 10.1361 1.45898 10.4637 2.12279L12.1001 5.43837C12.2302 5.70197 12.4816 5.88467 12.7725 5.92694L16.4315 6.45862C17.1641 6.56507 17.4566 7.46531 16.9265 7.98201L14.2788 10.5628C14.0683 10.768 13.9723 11.0636 14.022 11.3534L14.647 14.9975C14.7721 15.7271 14.0063 16.2835 13.3511 15.939L10.0784 14.2185C9.81826 14.0817 9.50742 14.0817 9.24724 14.2185L5.97456 15.939C5.31934 16.2835 4.55355 15.7271 4.67869 14.9975L5.30371 11.3534C5.35341 11.0636 5.25735 10.768 5.04686 10.5628L2.3992 7.98201C1.86912 7.46531 2.16163 6.56507 2.89418 6.45862L6.55315 5.92694C6.84405 5.88467 7.09552 5.70197 7.22561 5.43837L8.86195 2.12278Z" fill="#F84C4C"/>
</svg>
