<svg width="58" height="20" viewBox="0 0 58 20" fill="none" xmlns="http://www.w3.org/2000/svg">
<rect width="58" height="20" rx="10" fill="white" fill-opacity="0.38"/>
<circle cx="10.8953" cy="9.72388" r="4" fill="#F84C4C"/>
<path d="M26.3389 8.77652L25.7114 9.62119C24.7582 9.18679 23.7687 8.31799 23.3222 7.29232C23.0085 8.40246 21.9345 9.39193 20.7882 9.93493L20.1366 9.09026C21.6449 8.45072 22.7551 7.18372 22.7551 5.51851V4.51697H23.8411V5.48231C23.8411 7.14752 25.1322 8.36625 26.3389 8.77652ZM28.6436 12.5051C28.6436 13.7842 27.3163 14.5685 25.084 14.5685C22.8516 14.5685 21.5243 13.7842 21.5243 12.5051C21.5243 11.2381 22.8516 10.4417 25.084 10.4417C27.3163 10.4417 28.6436 11.2381 28.6436 12.5051ZM25.084 11.3226C23.5635 11.3226 22.6344 11.757 22.6344 12.5051C22.6344 13.2533 23.5635 13.6997 25.084 13.6997C26.6044 13.6997 27.5456 13.2533 27.5456 12.5051C27.5456 11.757 26.6044 11.3226 25.084 11.3226ZM30.0675 7.66639H28.4988V10.4538H27.4249V4.02224H28.4988V6.78552H30.0675V7.66639ZM39.2479 12.5775C39.2479 13.7963 37.9206 14.5565 35.5917 14.5565C33.2749 14.5565 31.9476 13.7963 31.9476 12.5775C31.9476 11.3347 33.2749 10.5745 35.5917 10.5745C37.9206 10.5745 39.2479 11.3347 39.2479 12.5775ZM36.0382 7.21992C36.0382 8.74032 34.8074 9.71773 33.3111 9.71773C31.8148 9.71773 30.572 8.75239 30.572 7.21992C30.572 5.72364 31.8028 4.68591 33.3111 4.68591C34.7953 4.68591 36.0382 5.71158 36.0382 7.21992ZM36.3278 8.81272C36.3278 8.51106 36.3399 8.20939 36.3399 7.91979H38.1137V6.31491H36.3399C36.3399 6.01325 36.3278 5.71158 36.3278 5.40991H38.1137V4.02224H39.1876V10.5624H38.1137V8.81272H36.3278ZM38.1378 12.5775C38.1378 11.8656 37.1966 11.4312 35.5917 11.4312C34.011 11.4312 33.0698 11.8656 33.0698 12.5775C33.0698 13.2774 34.011 13.6997 35.5917 13.6997C37.1966 13.6997 38.1378 13.2774 38.1378 12.5775ZM34.9522 7.21992C34.9522 6.29078 34.3247 5.60298 33.3111 5.60298C32.3337 5.60298 31.6459 6.29078 31.6459 7.20785C31.6459 8.17319 32.3337 8.84892 33.3111 8.84892C34.2885 8.84892 34.9522 8.17319 34.9522 7.21992ZM49.1282 12.6379C49.1282 13.8445 47.7526 14.5444 45.472 14.5444C43.1914 14.5444 41.8399 13.8445 41.8399 12.6379C41.8399 11.5277 42.9742 10.8641 44.9169 10.7675V9.82633H40.7177V8.94546H50.2384V9.82633H45.9909V10.7555C47.9578 10.852 49.1282 11.5277 49.1282 12.6379ZM49.7919 7.50952L49.3092 8.35419C47.644 8.12492 46.0271 7.20785 45.472 6.24251C45.0255 7.23198 43.4569 8.12492 41.6589 8.35419L41.1883 7.52159C42.8173 7.38885 44.5308 6.60451 44.8687 5.39784H41.6348V4.52904H49.3213V5.39784H46.1115C46.4736 6.61658 48.3318 7.38885 49.7919 7.50952ZM45.472 11.6122C43.9395 11.6122 42.938 11.9501 42.938 12.6499C42.938 13.3377 43.9395 13.6756 45.472 13.6756C47.0166 13.6756 48.0302 13.3377 48.0302 12.6499C48.0302 11.9501 47.0045 11.6122 45.472 11.6122Z" fill="white"/>
</svg>
