<svg width="67" height="83" viewBox="0 0 67 83" fill="none" xmlns="http://www.w3.org/2000/svg">
<rect x="0.397461" y="0.679443" width="66" height="82" rx="15" fill="#F5F5F5"/>
<path d="M32.4335 37.5514C32.4335 38.7634 31.1495 39.5434 28.8575 39.5434C26.5775 39.5434 25.2935 38.7634 25.2935 37.5514C25.2935 36.3034 26.5775 35.5474 28.8575 35.5474C31.1495 35.5474 32.4335 36.3034 32.4335 37.5514ZM29.6015 33.8074V33.0274H31.5095V31.2034H29.6015V30.4234H31.5095V29.0314H32.4215V35.5234H31.5095V33.8074H29.6015ZM31.4975 37.5514C31.4975 36.7714 30.5255 36.3154 28.8575 36.3154C27.2255 36.3154 26.2415 36.7714 26.2415 37.5514C26.2415 38.3194 27.2255 38.7634 28.8575 38.7634C30.5255 38.7634 31.4975 38.3194 31.4975 37.5514ZM26.6375 29.6674C28.1135 29.6674 29.3255 30.6514 29.3255 32.1754C29.3255 33.7114 28.1135 34.6714 26.6375 34.6714C25.1735 34.6714 23.9375 33.7114 23.9375 32.1874C23.9375 30.6754 25.1615 29.6674 26.6375 29.6674ZM26.6375 30.4474C25.6055 30.4474 24.8495 31.1314 24.8495 32.1754C24.8495 33.2434 25.6055 33.9274 26.6375 33.9274C27.7055 33.9274 28.4135 33.2434 28.4135 32.1874C28.4135 31.1434 27.7175 30.4474 26.6375 30.4474ZM40.7763 36.6874L40.8363 37.4314C40.0203 37.5274 38.6283 37.6594 37.3683 37.7434C36.2043 37.8154 35.1003 37.8154 34.2243 37.8154L34.0563 37.0234C34.8003 37.0474 35.8683 37.0474 36.8763 37.0114V35.9674C35.6643 35.8354 34.8723 35.1874 34.8723 34.2394C34.8723 33.1474 35.8803 32.4634 37.3563 32.4634C38.8443 32.4634 39.8403 33.1354 39.8403 34.2394C39.8403 35.1994 39.0363 35.8474 37.8003 35.9674V36.9634C38.9643 36.8914 40.0803 36.7954 40.7763 36.6874ZM44.0043 34.4674H42.3243V39.5194H41.4003V29.0314H42.3243V33.6874H44.0043V34.4674ZM38.9523 34.2394C38.9523 33.6274 38.3163 33.2194 37.3563 33.2194C36.4083 33.2194 35.7483 33.6274 35.7483 34.2394C35.7483 34.8274 36.4083 35.2474 37.3563 35.2474C38.3163 35.2474 38.9523 34.8274 38.9523 34.2394ZM40.5123 31.9234H34.2723V31.1674H40.5123V31.9234ZM38.8443 30.3154H35.8323V29.5474H38.8443V30.3154ZM32.8295 47.8434L32.4095 48.6114C30.7055 48.3714 29.1215 47.5074 28.5815 46.5474C28.1015 47.5194 26.5895 48.4074 24.7775 48.6354L24.3695 47.8674C26.0495 47.6994 27.8255 46.8834 28.1015 45.6354H24.7415V44.8674H32.4215V45.6354H29.0975C29.3615 46.8834 31.2335 47.6874 32.8295 47.8434ZM29.0255 53.5314H28.1135V50.1954H23.8535V49.4274H33.3215V50.1954H29.0255V53.5314ZM30.2975 43.9554H26.8775V43.1634H30.2975V43.9554ZM42.3003 43.0314V47.3994H44.0163V48.1794H42.3003V53.5194H41.3883V43.0314H42.3003ZM39.5763 44.1594C39.5163 47.5674 37.5483 50.0274 34.8483 51.4314L34.2843 50.7114C36.9003 49.4994 38.4003 47.2914 38.5923 44.9274H34.6443V44.1594H39.5763Z" fill="#B6B6B6"/>
</svg>
