<svg width="67" height="83" viewBox="0 0 67 83" fill="none" xmlns="http://www.w3.org/2000/svg">
<rect x="0.397461" y="0.679443" width="66" height="82" rx="15" fill="#F5F5F5"/>
<path d="M33.3215 34.2394H23.8535V33.4834H30.8735C31.0655 32.6674 31.1855 31.2394 31.1855 30.3994H25.0055V29.6434H32.1215C32.1215 31.0114 32.0015 32.4154 31.7735 33.4834H33.3215V34.2394ZM24.8855 35.7634H32.1335V39.5914H31.2095V36.5194H24.8855V35.7634ZM42.4443 37.5154C42.4443 38.7514 41.1123 39.5074 38.9163 39.5074C36.7203 39.5074 35.4003 38.7514 35.4003 37.5154C35.4003 36.2554 36.7203 35.4994 38.9163 35.4994C41.1123 35.4994 42.4443 36.2554 42.4443 37.5154ZM34.2963 30.5554V29.7874H40.0203V30.5554H37.6323C37.6323 30.8194 37.6323 31.0234 37.6443 31.1314C37.7283 32.4754 38.9763 33.6274 40.1763 34.0234L39.6723 34.7554C38.6643 34.3474 37.5963 33.3994 37.1643 32.4514C36.8763 33.4354 35.6523 34.5634 34.5243 35.0434L33.9963 34.3354C35.3163 33.8314 36.6483 32.5114 36.6963 31.1194C36.6963 31.0234 36.7083 30.8194 36.7083 30.5554H34.2963ZM41.5083 37.5154C41.5083 36.6994 40.5003 36.2674 38.9163 36.2674C37.3323 36.2674 36.3483 36.6994 36.3483 37.5154C36.3483 38.2954 37.3323 38.7514 38.9163 38.7514C40.5003 38.7514 41.5083 38.2954 41.5083 37.5154ZM43.9203 32.7034H42.3003V35.4754H41.3883V29.0314H42.3003V31.9354H43.9203V32.7034ZM32.8295 47.8434L32.4095 48.6114C30.7055 48.3714 29.1215 47.5074 28.5815 46.5474C28.1015 47.5194 26.5895 48.4074 24.7775 48.6354L24.3695 47.8674C26.0495 47.6994 27.8255 46.8834 28.1015 45.6354H24.7415V44.8674H32.4215V45.6354H29.0975C29.3615 46.8834 31.2335 47.6874 32.8295 47.8434ZM29.0255 53.5314H28.1135V50.1954H23.8535V49.4274H33.3215V50.1954H29.0255V53.5314ZM30.2975 43.9554H26.8775V43.1634H30.2975V43.9554ZM42.3003 43.0314V47.3994H44.0163V48.1794H42.3003V53.5194H41.3883V43.0314H42.3003ZM39.5763 44.1594C39.5163 47.5674 37.5483 50.0274 34.8483 51.4314L34.2843 50.7114C36.9003 49.4994 38.4003 47.2914 38.5923 44.9274H34.6443V44.1594H39.5763Z" fill="#B6B6B6"/>
</svg>
