<svg width="70" height="30" viewBox="0 0 70 30" fill="none" xmlns="http://www.w3.org/2000/svg">
<rect x="0.397461" y="0.679443" width="69.5" height="28.6412" rx="14.3206" fill="#F5F5F5"/>
<path d="M23.1835 17.872C23.1835 19.084 21.8995 19.864 19.6075 19.864C17.3275 19.864 16.0435 19.084 16.0435 17.872C16.0435 16.624 17.3275 15.868 19.6075 15.868C21.8995 15.868 23.1835 16.624 23.1835 17.872ZM20.3515 14.128V13.348H22.2595V11.524H20.3515V10.744H22.2595V9.352H23.1715V15.844H22.2595V14.128H20.3515ZM22.2475 17.872C22.2475 17.092 21.2755 16.636 19.6075 16.636C17.9755 16.636 16.9915 17.092 16.9915 17.872C16.9915 18.64 17.9755 19.084 19.6075 19.084C21.2755 19.084 22.2475 18.64 22.2475 17.872ZM17.3875 9.988C18.8635 9.988 20.0755 10.972 20.0755 12.496C20.0755 14.032 18.8635 14.992 17.3875 14.992C15.9235 14.992 14.6875 14.032 14.6875 12.508C14.6875 10.996 15.9115 9.988 17.3875 9.988ZM17.3875 10.768C16.3555 10.768 15.5995 11.452 15.5995 12.496C15.5995 13.564 16.3555 14.248 17.3875 14.248C18.4555 14.248 19.1635 13.564 19.1635 12.508C19.1635 11.464 18.4675 10.768 17.3875 10.768ZM31.5263 17.008L31.5863 17.752C30.7703 17.848 29.3783 17.98 28.1183 18.064C26.9543 18.136 25.8503 18.136 24.9743 18.136L24.8063 17.344C25.5503 17.368 26.6183 17.368 27.6263 17.332V16.288C26.4143 16.156 25.6223 15.508 25.6223 14.56C25.6223 13.468 26.6303 12.784 28.1063 12.784C29.5943 12.784 30.5903 13.456 30.5903 14.56C30.5903 15.52 29.7863 16.168 28.5503 16.288V17.284C29.7143 17.212 30.8303 17.116 31.5263 17.008ZM34.7543 14.788H33.0743V19.84H32.1503V9.352H33.0743V14.008H34.7543V14.788ZM29.7023 14.56C29.7023 13.948 29.0663 13.54 28.1063 13.54C27.1583 13.54 26.4983 13.948 26.4983 14.56C26.4983 15.148 27.1583 15.568 28.1063 15.568C29.0663 15.568 29.7023 15.148 29.7023 14.56ZM31.2623 12.244H25.0223V11.488H31.2623V12.244ZM29.5943 10.636H26.5823V9.868H29.5943V10.636ZM44.0211 17.848C44.0211 19.072 42.7491 19.84 40.4931 19.84C38.2491 19.84 36.9891 19.072 36.9891 17.848C36.9891 16.612 38.2491 15.844 40.4931 15.844C42.7491 15.844 44.0211 16.612 44.0211 17.848ZM35.6451 10.996V10.228H41.3211V10.996H38.9571C38.9571 11.2 38.9571 11.44 38.9691 11.56C39.0531 12.988 40.3971 14.128 41.6811 14.512L41.1411 15.244C40.0491 14.812 38.9211 13.828 38.4891 12.88C38.2011 13.864 36.9411 15.124 35.8131 15.616L35.3211 14.884C36.6411 14.38 37.9731 13.048 38.0211 11.56C38.0331 11.44 38.0331 11.188 38.0331 10.996H35.6451ZM40.4931 16.612C38.8851 16.612 37.9131 17.056 37.9131 17.848C37.9131 18.628 38.8851 19.072 40.4931 19.072C42.1371 19.072 43.0851 18.628 43.0851 17.848C43.0851 17.056 42.1371 16.612 40.4931 16.612ZM43.0251 12.844H40.9131V12.076H43.0251V9.352H43.9371V15.868H43.0251V12.844ZM54.0679 15.628H50.9239V17.764H55.2199V18.532H45.7519V17.764H50.0119V15.628H46.8919V10.072H47.8159V12.004H53.1559V10.072H54.0679V15.628ZM53.1559 14.872V12.76H47.8159V14.872H53.1559Z" fill="#666666"/>
</svg>
